<svg xmlns="http://www.w3.org/2000/svg" viewBox="-349 229.6 142.3 136.7"><script xmlns="" id="custom-useragent-string"/><path d="M-225.4 257.8c-4.9-1.3-9.9 1.6-11.2 6.5s1.6 9.9 6.5 11.2c4.9 1.3 9.9-1.6 11.2-6.5 1.3-4.8-1.6-9.9-6.5-11.2zm-28.6 16.6h-32.9l6.6-24.7c.8-2.8-.9-5.7-3.7-6.4l-5.1-1.4c-2.8-.8-5.6.9-6.4 3.7l-7.7 28.8H-329c-2.9 0-5.9 2.4-6.6 5.3l-1.4 5.2c-.8 2.9.9 5.2 3.8 5.2h25.8l-6.7 24.8c-.8 2.8 1 5.7 3.8 6.4l5 1.3c2.8.7 5.6-.9 6.3-3.6l7.8-28.9h37.1c5.1 0 9.2 4.1 9.2 9.2 0 .6-.2 1.7-.3 2.1l-12.1 44.9c-.8 2.8 1 5.7 3.8 6.4l5 1.3c2.8.7 5.6-.9 6.3-3.6l12.1-44.6c.6-2.1.9-4.2.9-6.5.1-13.7-11.1-24.9-24.8-24.9z" fill="#005A9B"/></svg>